<?xml version="1.0" encoding="UTF-8"?>
<svg version="1.1" xmlns="http://www.w3.org/2000/svg" viewBox="0 0 221 205" id="v-logo" width="100%" height="100%">
<path d="M0 0 C3.47616761 1.15872254 3.63554981 1.61523395 5.26171875 4.7109375 C5.65810547 5.46117187 6.05449219 6.21140625 6.46289062 6.984375 C6.86701172 7.77328125 7.27113281 8.5621875 7.6875 9.375 C8.31108398 10.54675781 8.31108398 10.54675781 8.94726562 11.7421875 C12 17.59702124 12 17.59702124 12 21 C12.66 21 13.32 21 14 21 C14.19335938 20.38511719 14.38671875 19.77023438 14.5859375 19.13671875 C14.84632813 18.32847656 15.10671875 17.52023438 15.375 16.6875 C15.75785156 15.48673828 15.75785156 15.48673828 16.1484375 14.26171875 C17 12 17 12 19 9 C19.66 9 20.32 9 21 9 C21.02344928 24.40426288 21.04103791 39.80852441 21.05181217 55.21280098 C21.05694972 62.36664556 21.0639435 69.52047899 21.07543945 76.67431641 C21.08546446 82.91581317 21.09187187 89.15730186 21.09408849 95.39880645 C21.09538244 98.69797191 21.0989236 101.99710913 21.10573006 105.29626846 C21.15594041 130.6566363 21.15594041 130.6566363 20 143 C13.4 143 6.8 143 0 143 C0 122.21 0 101.42 0 80 C-20.13 80 -40.26 80 -61 80 C-61 87.92 -61 95.84 -61 104 C-72.02935097 113.6506821 -72.02935097 113.6506821 -77 115 C-78.65 114.67 -80.3 114.34 -82 114 C-81.67 81.66 -81.34 49.32 -81 16 C-75.93740917 16.84376514 -73.95369715 17.28728781 -69.875 19.8125 C-69.04742187 20.31394531 -68.21984375 20.81539062 -67.3671875 21.33203125 C-64.81794614 23.12827887 -62.94355548 24.54387792 -61 27 C-60.65087512 29.67812571 -60.53051353 31.94236707 -60.609375 34.609375 C-60.61340332 35.25406738 -60.61743164 35.89875977 -60.62158203 36.56298828 C-60.64242628 38.95895059 -60.69827233 41.35450546 -60.75 43.75 C-60.8325 49.1125 -60.915 54.475 -61 60 C-40.87 60 -20.74 60 0 60 C0 40.2 0 20.4 0 0 Z " fill="#E2E1CE" transform="translate(162,35)"/>
<path d="M0 0 C10.16681777 2.25929284 10.16681777 2.25929284 14.5 4.0625 C15.3353125 4.40410156 16.170625 4.74570313 17.03125 5.09765625 C19 6 19 6 20 7 C20.09436529 9.23929886 20.11742327 11.4816175 20.11352539 13.72290039 C20.11367142 14.4253035 20.11381744 15.1277066 20.1139679 15.85139465 C20.11326872 18.18351278 20.10547617 20.515552 20.09765625 22.84765625 C20.09579208 24.46048438 20.09436818 26.07331307 20.09336853 27.68614197 C20.08954323 31.93915357 20.07971285 36.19213124 20.06866455 40.44512939 C20.05845069 44.7817743 20.05387096 49.11842467 20.04882812 53.45507812 C20.03809059 61.97006769 20.02101403 70.48502963 20 79 C25.33505768 78.95542591 30.66897874 78.88516193 36.00341797 78.79248047 C37.81289556 78.76449388 39.62249034 78.74317002 41.43212891 78.72900391 C57.9002681 78.59245217 71.3728237 76.37244707 84.18359375 65.07421875 C90.39710545 58.6426891 94.00602708 50.91662489 98 43 C104.93 43 111.86 43 119 43 C117.575452 49.410466 116.28817963 54.28188426 113.375 59.9375 C113.02163574 60.6291626 112.66827148 61.3208252 112.30419922 62.03344727 C103.37771345 78.98981169 88.51869917 91.25475293 70.4375 97.4375 C64.85474191 99.16420604 59.78238659 100.12585766 53.92456055 100.11352539 C52.70700073 100.11340454 51.48944092 100.11328369 50.23498535 100.11315918 C48.33009338 100.10548523 48.33009338 100.10548523 46.38671875 100.09765625 C45.21226196 100.09664917 44.03780518 100.09564209 42.82775879 100.09460449 C38.44766257 100.08937916 34.06758029 100.07541789 29.6875 100.0625 C14.9921875 100.0315625 14.9921875 100.0315625 0 100 C0 67 0 34 0 0 Z " fill="#E1DFCB" transform="translate(20,78)"/>
<path d="M0 0 C1.05782684 -0.0023188 1.05782684 -0.0023188 2.13702393 -0.00468445 C4.45729423 -0.00716953 6.77740196 -0.00087337 9.09765625 0.0078125 C10.28205795 0.01163437 10.28205795 0.01163437 11.49038696 0.01553345 C16.30242543 0.03377311 21.11416628 0.06827648 25.92602539 0.11322021 C27.98645824 0.13128925 30.04694172 0.14331539 32.10742188 0.15478516 C55.07822582 0.33862637 74.65927429 4.32270036 91.59765625 20.8828125 C103.51621744 33.15486537 112.16015625 49.88781226 112.16015625 67.1328125 C105.56015625 67.1328125 98.96015625 67.1328125 92.16015625 67.1328125 C91.47953125 64.9053125 90.79890625 62.6778125 90.09765625 60.3828125 C86.66928259 49.81728264 81.76724482 40.37369653 73.16015625 33.1328125 C72.41572266 32.46185547 72.41572266 32.46185547 71.65625 31.77734375 C62.23256551 24.10141027 49.25870397 21.98783841 37.4765625 22.03515625 C36.7761937 22.0365712 36.07582489 22.03798615 35.35423279 22.03944397 C33.14366159 22.04498773 30.93319621 22.05752924 28.72265625 22.0703125 C27.2128921 22.07533479 25.70312634 22.07989641 24.19335938 22.08398438 C20.51555262 22.09408269 16.83797121 22.11366829 13.16015625 22.1328125 C12.83015625 29.0628125 12.50015625 35.9928125 12.16015625 43.1328125 C9.23140625 44.1228125 6.30265625 45.1128125 3.28515625 46.1328125 C2.3636377 46.44605469 1.44211914 46.75929687 0.49267578 47.08203125 C-0.23322754 47.32566406 -0.95913086 47.56929687 -1.70703125 47.8203125 C-2.82247314 48.19736328 -2.82247314 48.19736328 -3.96044922 48.58203125 C-5.83984375 49.1328125 -5.83984375 49.1328125 -7.83984375 49.1328125 C-7.86511265 42.31519356 -7.88267619 35.49758661 -7.89477539 28.67993164 C-7.89981708 26.35863799 -7.90665026 24.03734753 -7.9152832 21.71606445 C-7.927356 18.38752455 -7.93307354 15.05902648 -7.9375 11.73046875 C-7.94266129 10.68568863 -7.94782257 9.64090851 -7.95314026 8.56446838 C-7.95321579 7.60354782 -7.95329132 6.64262726 -7.95336914 5.65258789 C-7.95558975 4.80209366 -7.95781036 3.95159943 -7.96009827 3.07533264 C-7.6835448 -1.391948 -3.6088118 0.0031418 0 0 Z " fill="#E4E2D0" transform="translate(27.83984375,21.8671875)"/>
<path d="M0 0 C2.37939902 2.37939902 2.7641769 4.11722249 3.75 7.3125 C5.50302185 12.19546267 7.27461676 15.56542121 12 18 C15.61657629 19.50649109 19.26770787 20.81124503 23 22 C20.74777168 24.25222832 19.16505344 24.76343694 16.1875 25.8125 C10.45013398 28.09590573 7.29872842 30.2402021 4.59375 35.98828125 C3.33165977 38.97172233 2.13681015 41.96689378 1 45 C-1.76160806 43.61919597 -1.80233529 42.18824549 -2.8125 39.3125 C-5.17516347 33.32481136 -7.12591869 29.41637733 -12.98828125 26.52734375 C-15.96852105 25.2701098 -18.95743465 24.09668225 -22 23 C-19.08942957 20.08942957 -15.60953817 19.49135342 -11.7265625 18.29296875 C-6.29218764 15.71592279 -4.37761165 11.06562944 -2.25 5.6875 C-1.82203125 4.61886719 -1.3940625 3.55023438 -0.953125 2.44921875 C-0.63859375 1.64097656 -0.3240625 0.83273438 0 0 Z " fill="#E1DFCC" transform="translate(52,52)"/>
<path d="M0 0 C0.66 0 1.32 0 2 0 C2.64690922 1.6037331 3.29248764 3.20800306 3.9375 4.8125 C4.29714844 5.70582031 4.65679687 6.59914063 5.02734375 7.51953125 C5.73613486 9.3270909 6.3860247 11.15807409 7 13 C9.16621868 14.1025173 9.16621868 14.1025173 12 15 C13.43879549 15.53821609 14.87624591 16.08003834 16.3125 16.625 C17.529375 17.07875 18.74625 17.5325 20 18 C20 18.66 20 19.32 20 20 C19.41992188 20.13535156 18.83984375 20.27070313 18.2421875 20.41015625 C12.00837426 22.12805528 8.40669975 24.45319399 5 30 C3.77770571 32.6483043 2.8815792 35.20833254 2 38 C-0.70477402 35.63622901 -1.81647455 33.35395098 -3.1875 30.0625 C-5.40652914 25.43558819 -7.41629792 23.53889832 -12.1328125 21.62109375 C-12.74898437 21.41613281 -13.36515625 21.21117188 -14 21 C-14.99 20.67 -15.98 20.34 -17 20 C-17 19.34 -17 18.68 -17 18 C-16.39671875 17.75765625 -15.7934375 17.5153125 -15.171875 17.265625 C-7.54042182 14.10264632 -7.54042182 14.10264632 -2.87890625 7.5234375 C-1.86482828 5.03210408 -0.90827569 2.53157692 0 0 Z " fill="#E2E0CD" transform="translate(174,7)"/>
<path d="M0 0 C10.16681777 2.25929284 10.16681777 2.25929284 14.5 4.0625 C15.3353125 4.40410156 16.170625 4.74570313 17.03125 5.09765625 C19 6 19 6 20 7 C20.09436529 9.23929886 20.11742327 11.4816175 20.11352539 13.72290039 C20.11367142 14.4253035 20.11381744 15.1277066 20.1139679 15.85139465 C20.11326872 18.18351278 20.10547617 20.515552 20.09765625 22.84765625 C20.09579208 24.46048438 20.09436818 26.07331307 20.09336853 27.68614197 C20.08954323 31.93915357 20.07971285 36.19213124 20.06866455 40.44512939 C20.05845069 44.7817743 20.05387096 49.11842467 20.04882812 53.45507812 C20.03809059 61.97006769 20.02101403 70.48502963 20 79 C25.33505768 78.95542591 30.66897874 78.88516193 36.00341797 78.79248047 C37.81289556 78.76449388 39.62249034 78.74317002 41.43212891 78.72900391 C57.9002681 78.59245217 71.3728237 76.37244707 84.18359375 65.07421875 C90.39710545 58.6426891 94.00602708 50.91662489 98 43 C104.93 43 111.86 43 119 43 C117.58028185 49.38873167 116.74830658 53.12820278 113.875 58.5625 C113.33617187 59.59503906 112.79734375 60.62757813 112.2421875 61.69140625 C111.83226562 62.45324219 111.42234375 63.21507812 111 64 C110.67 63.34 110.34 62.68 110 62 C110.93570617 59.61394927 111.92374335 57.32097087 113 55 C114.62401027 51.35736014 116.02743712 47.89025151 117 44 C111.06 44 105.12 44 99 44 C98.34 46.31 97.68 48.62 97 51 C89.34265906 64.45296051 79.06518092 74.42438539 63.9296875 78.90991211 C55.14266286 80.92206135 46.8818263 81.40952374 37.8996582 81.28125 C35.64453006 81.24939299 33.39009905 81.24019459 31.13476562 81.234375 C20.16454712 81.16454712 20.16454712 81.16454712 19 80 C18.87588418 77.76142644 18.82196977 75.51894516 18.79467773 73.27709961 C18.77982834 72.22349495 18.77982834 72.22349495 18.76467896 71.14860535 C18.73297878 68.81655296 18.70827312 66.48448016 18.68359375 64.15234375 C18.66303156 62.53950965 18.64203529 60.92668104 18.62062073 59.31385803 C18.56532408 55.06090725 18.51594844 50.80790723 18.46777344 46.55487061 C18.41761369 42.21817625 18.36189885 37.88155373 18.30664062 33.54492188 C18.19896625 25.03000859 18.09754205 16.51503535 18 8 C15.91780951 7.18457569 13.83420239 6.37276811 11.75 5.5625 C10.58984375 5.11003906 9.4296875 4.65757813 8.234375 4.19140625 C4.9124913 2.90180261 4.9124913 2.90180261 1 2 C1.33 34.34 1.66 66.68 2 100 C1.34 100 0.68 100 0 100 C0 67 0 34 0 0 Z " fill="#FEFEF5" transform="translate(20,78)"/>
<path d="M0 0 C3.47616761 1.15872254 3.63554981 1.61523395 5.26171875 4.7109375 C5.65810547 5.46117187 6.05449219 6.21140625 6.46289062 6.984375 C6.86701172 7.77328125 7.27113281 8.5621875 7.6875 9.375 C8.31108398 10.54675781 8.31108398 10.54675781 8.94726562 11.7421875 C12 17.59702124 12 17.59702124 12 21 C12.66 21 13.32 21 14 21 C14.19335938 20.38511719 14.38671875 19.77023438 14.5859375 19.13671875 C14.84632813 18.32847656 15.10671875 17.52023438 15.375 16.6875 C15.75785156 15.48673828 15.75785156 15.48673828 16.1484375 14.26171875 C17 12 17 12 19 9 C19.66 9 20.32 9 21 9 C20.34097701 12.57040303 18.83770842 15.17732255 16.9375 18.25 C16.38964844 19.14203125 15.84179688 20.0340625 15.27734375 20.953125 C14.85582031 21.62859375 14.43429688 22.3040625 14 23 C11 22 11 22 9.92504883 20.32592773 C9.60560303 19.61895752 9.28615723 18.9119873 8.95703125 18.18359375 C8.43012695 17.03793945 8.43012695 17.03793945 7.89257812 15.86914062 C7.53615234 15.06669922 7.17972656 14.26425781 6.8125 13.4375 C6.44447266 12.63119141 6.07644531 11.82488281 5.69726562 10.99414062 C4.78875511 9.00013702 3.89019664 7.00223042 3 5 C2.98969254 5.69935165 2.97938507 6.39870331 2.96876526 7.11924744 C2.87094968 13.69713663 2.76845843 20.2749342 2.66066074 26.85266781 C2.60540198 30.23467122 2.55197744 33.61668324 2.50268555 36.9987793 C2.44599054 40.88339427 2.38142415 44.76785878 2.31640625 48.65234375 C2.29133751 50.48199928 2.29133751 50.48199928 2.26576233 52.34861755 C2.24581711 53.46970413 2.22587189 54.59079071 2.20532227 55.74584961 C2.18977798 56.73846298 2.1742337 57.73107635 2.15821838 58.75376892 C2 61 2 61 1 62 C-0.93392126 62.06432608 -2.87026063 62.05690435 -4.80493164 62.02172852 C-6.04614273 62.00163223 -7.28735382 61.98153595 -8.56617737 61.96083069 C-9.93083915 61.93363023 -11.29549873 61.90631945 -12.66015625 61.87890625 C-14.04877469 61.85461487 -15.43740102 61.83077083 -16.82603455 61.80735779 C-20.48728399 61.74441895 -24.14839433 61.67538034 -27.80950928 61.60510254 C-31.54286342 61.53450732 -35.27631647 61.46963771 -39.00976562 61.40429688 C-46.3399531 61.27515832 -53.67000313 61.13958041 -61 61 C-61 60.67 -61 60.34 -61 60 C-40.87 60 -20.74 60 0 60 C0 40.2 0 20.4 0 0 Z " fill="#E2F1E9" transform="translate(162,35)"/>
<path d="M0 0 C5.06259083 0.84376514 7.04630285 1.28728781 11.125 3.8125 C11.95257813 4.31394531 12.78015625 4.81539062 13.6328125 5.33203125 C16.18205386 7.12827887 18.05644452 8.54387792 20 11 C20.34959406 13.68172476 20.46923774 15.93937958 20.390625 18.609375 C20.38496521 19.33618469 20.37930542 20.06299438 20.37347412 20.81182861 C20.35114553 23.12523245 20.30096048 25.4370672 20.25 27.75 C20.22993023 29.32159216 20.21168029 30.89320868 20.1953125 32.46484375 C20.15129293 36.31049717 20.08229375 40.15498289 20 44 C19.67 44 19.34 44 19 44 C19.00636475 43.0620459 19.01272949 42.1240918 19.01928711 41.15771484 C19.02643411 37.6565527 19.00227292 34.15844722 18.95727539 30.65771484 C18.94418535 29.14670369 18.94335606 27.63553219 18.95532227 26.12451172 C19.24440408 17.65065059 19.24440408 17.65065059 16.73095703 9.77832031 C12.37753041 5.71988974 6.4101802 4.16407208 1 2 C1 33.35 1 64.7 1 97 C10.23711663 93.86089091 10.23711663 93.86089091 17 88 C17.85341959 83.89130762 17.88478473 79.87291893 17.875 75.6875 C17.895625 74.56537109 17.91625 73.44324219 17.9375 72.28710938 C17.9845317 69.52399707 18.00444741 66.7634302 18 64 C18.66 64 19.32 64 20 64 C20.23382288 67.85313128 20.37489753 71.70442912 20.5 75.5625 C20.56703125 76.64853516 20.6340625 77.73457031 20.703125 78.85351562 C20.89613989 86.79125317 20.89613989 86.79125317 18.33081055 90.25146484 C14.2993754 93.84006538 9.27244939 97.56875625 4 99 C2.35 98.67 0.7 98.34 -1 98 C-0.67 65.66 -0.34 33.32 0 0 Z " fill="#FCFCF4" transform="translate(81,51)"/>
<path d="M0 0 C2.37939902 2.37939902 2.7641769 4.11722249 3.75 7.3125 C5.50302185 12.19546267 7.27461676 15.56542121 12 18 C15.61657629 19.50649109 19.26770787 20.81124503 23 22 C20.74777168 24.25222832 19.16505344 24.76343694 16.1875 25.8125 C10.45013398 28.09590573 7.29872842 30.2402021 4.59375 35.98828125 C3.33165977 38.97172233 2.13681015 41.96689378 1 45 C-1.76160806 43.61919597 -1.80233529 42.18824549 -2.8125 39.3125 C-5.17516347 33.32481136 -7.12591869 29.41637733 -12.98828125 26.52734375 C-15.96852105 25.2701098 -18.95743465 24.09668225 -22 23 C-19.08942957 20.08942957 -15.60953817 19.49135342 -11.7265625 18.29296875 C-6.29218764 15.71592279 -4.37761165 11.06562944 -2.25 5.6875 C-1.82203125 4.61886719 -1.3940625 3.55023438 -0.953125 2.44921875 C-0.63859375 1.64097656 -0.3240625 0.83273438 0 0 Z M0 5 C-0.24234375 5.60328125 -0.4846875 6.2065625 -0.734375 6.828125 C-4.20448744 15.1030085 -7.92990805 18.31753086 -16 22 C-16 22.66 -16 23.32 -16 24 C-15.32453125 24.27972656 -14.6490625 24.55945313 -13.953125 24.84765625 C-6.15519243 28.35221843 -4.06045639 31.15792747 -0.75 38.9375 C-0.5025 39.618125 -0.255 40.29875 0 41 C1.97007805 38.17138314 1.97007805 38.17138314 3.19140625 35.66015625 C6.33247317 29.70913203 8.85960809 26.81948092 15.2421875 24.5234375 C15.82226562 24.35070312 16.40234375 24.17796875 17 24 C16.35160506 20.95266436 16.35160506 20.95266436 14.29296875 20.0078125 C13.59816406 19.71648437 12.90335938 19.42515625 12.1875 19.125 C5.72427244 16.06650839 3.51038222 11.40147465 1 5 C0.67 5 0.34 5 0 5 Z " fill="#FDFDF6" transform="translate(52,52)"/>
<path d="M0 0 C3.47616761 1.15872254 3.63554981 1.61523395 5.26171875 4.7109375 C5.65810547 5.46117187 6.05449219 6.21140625 6.46289062 6.984375 C7.06907227 8.16773438 7.06907227 8.16773438 7.6875 9.375 C8.10322266 10.15617187 8.51894531 10.93734375 8.94726562 11.7421875 C12 17.59702124 12 17.59702124 12 21 C12.66 21 13.32 21 14 21 C14.19335938 20.38511719 14.38671875 19.77023438 14.5859375 19.13671875 C14.84632813 18.32847656 15.10671875 17.52023438 15.375 16.6875 C15.63023437 15.88699219 15.88546875 15.08648437 16.1484375 14.26171875 C17 12 17 12 19 9 C19.66 9 20.32 9 21 9 C20.34097701 12.57040303 18.83770842 15.17732255 16.9375 18.25 C16.38964844 19.14203125 15.84179688 20.0340625 15.27734375 20.953125 C14.85582031 21.62859375 14.43429688 22.3040625 14 23 C11 22 11 22 9.94091797 20.34179688 C9.62783691 19.64119141 9.31475586 18.94058594 8.9921875 18.21875 C8.64542969 17.45949219 8.29867187 16.70023438 7.94140625 15.91796875 C7.41353516 14.72107422 7.41353516 14.72107422 6.875 13.5 C6.16570905 11.92634015 5.4548529 10.35338454 4.7421875 8.78125 C4.4313623 8.08064453 4.12053711 7.38003906 3.80029297 6.65820312 C3.11454174 5.00471732 3.11454174 5.00471732 2 4 C1.67 22.48 1.34 40.96 1 60 C0.67 60 0.34 60 0 60 C0 40.2 0 20.4 0 0 Z " fill="#FDFCF8" transform="translate(162,35)"/>
<path d="M0 0 C-0.66 0 -1.32 0 -2 0 C-1.26667333 3.24353785 -1.26667333 3.24353785 1.8125 4.8125 C5.2974993 7.20416618 6.96628883 9.32367596 9 13 C9 13.99 9 14.98 9 16 C9.66 16 10.32 16 11 16 C11.2475 14.7315625 11.2475 14.7315625 11.5 13.4375 C13.54933487 8.74110758 16.72802746 5.79410096 21 3 C22.66247082 2.64633399 24.32870434 2.30928901 26 2 C26.33 1.34 26.66 0.68 27 0 C27.66 0.33 28.32 0.66 29 1 C29 1.66 29 2.32 29 3 C28.41992188 3.13535156 27.83984375 3.27070313 27.2421875 3.41015625 C21.00837426 5.12805528 17.40669975 7.45319399 14 13 C12.77770571 15.6483043 11.8815792 18.20833254 11 21 C8.29522598 18.63622901 7.18352545 16.35395098 5.8125 13.0625 C3.59347086 8.43558819 1.58370208 6.53889832 -3.1328125 4.62109375 C-3.74898437 4.41613281 -4.36515625 4.21117187 -5 4 C-5.99 3.67 -6.98 3.34 -8 3 C-8 2.34 -8 1.68 -8 1 C-3.375 -1.125 -3.375 -1.125 0 0 Z " fill="#FCFCF7" transform="translate(165,24)"/>
<path d="M0 0 C0.33 0.66 0.66 1.32 1 2 C-3.55067346 8.53642188 -8.1133675 14.61005211 -14 20 C-14.66 19.67 -15.32 19.34 -16 19 C-15.57847656 18.60167969 -15.15695313 18.20335937 -14.72265625 17.79296875 C-14.17480469 17.26316406 -13.62695312 16.73335937 -13.0625 16.1875 C-12.51722656 15.66542969 -11.97195312 15.14335937 -11.41015625 14.60546875 C-9.76480908 12.94187802 -9.76480908 12.94187802 -9 10 C-8.34 9.67 -7.68 9.34 -7 9 C-7 8.01 -7 7.02 -7 6 C-3.66666667 3 -3.66666667 3 -1 3 C-0.67 2.01 -0.34 1.02 0 0 Z " fill="#F4F3E5" transform="translate(129,142)"/>
<path d="M0 0 C0.66 0 1.32 0 2 0 C2.67305018 1.60149886 3.33822227 3.20631029 4 4.8125 C4.37125 5.70582031 4.7425 6.59914063 5.125 7.51953125 C6 10 6 10 6 13 C2 7.25 2 7.25 2 5 C1.34 5 0.68 5 0 5 C-0.2475 6.0725 -0.495 7.145 -0.75 8.25 C-1.99883146 11.99649437 -3.02488658 13.52073882 -6 16 C-6.99 15.67 -7.98 15.34 -9 15 C-8.2575 14.38125 -7.515 13.7625 -6.75 13.125 C-3.06419726 9.50220244 -1.66486016 4.78996079 0 0 Z " fill="#FCFBF5" transform="translate(174,7)"/>
<path d="M0 0 C1.55131943 3.92559489 0.37152113 6.30224841 -1.25 10.0625 C-1.68828125 11.10535156 -2.1265625 12.14820313 -2.578125 13.22265625 C-3.84759671 15.70231116 -4.90199595 17.21669656 -7 19 C-4.94235079 12.54646385 -2.57616518 6.2638737 0 0 Z " fill="#FAF9EC" transform="translate(137,123)"/>
<path d="M0 0 C0.66 0 1.32 0 2 0 C1.34215037 3.29680965 0.10579427 5.84117922 -1.5625 8.75 C-2.01753906 9.54921875 -2.47257813 10.3484375 -2.94140625 11.171875 C-3.29074219 11.77515625 -3.64007813 12.3784375 -4 13 C-5 10 -5 10 -4.00390625 7.51953125 C-3.52824219 6.62621094 -3.05257812 5.73289062 -2.5625 4.8125 C-2.08941406 3.91144531 -1.61632812 3.01039062 -1.12890625 2.08203125 C-0.75636719 1.39496094 -0.38382813 0.70789062 0 0 Z " fill="#FEFEFB" transform="translate(181,44)"/>
</svg>
